# xmcd CD database file
#
# Track frame offsets:
#	150
#	13037
#	22980
#	36587
#	53612
#	68580
#	82462
#	93117
#	101612
#	110525
#	120587
#	132950
#	141137
#	154487
#
# Disc length: 2183 seconds
#
# Revision: 4
# Processed by: cddbd v1.5.2PL0 Copyright (c) Steve Scherf et al.
# Submitted via: CDex 1.70beta2
#
DISCID=bb08850e
DTITLE=Willie Nelson - Things To Remember
DYEAR=1995
DGENRE=Country
TTITLE0=I Just Don't Understand
TTITLE1=I Didn't Sleep A Wink
TTITLE2=Undo The Right
TTITLE3=I Let My Mind Wander
TTITLE4=And So Will You My Love
TTITLE5=Home Is Where You're Happy
TTITLE6=I Feel Sorry For Him
TTITLE7=Slow Down Old World
TTITLE8=Why Are You Picking On Me
TTITLE9=Broken Promises
TTITLE10=I Can't Find The Time
TTITLE11=Things To Remember
TTITLE12=You'll Always Have Someone
TTITLE13=One Step Beyond
EXTD=YEAR: 1995
EXTT0=
EXTT1=
EXTT2=
EXTT3=
EXTT4=
EXTT5=
EXTT6=
EXTT7=
EXTT8=
EXTT9=
EXTT10=
EXTT11=
EXTT12=
EXTT13=
PLAYORDER=
